<svg id="Layer_1" data-name="Layer 1" xmlns="http://www.w3.org/2000/svg" viewBox="0 0 600 400"><defs><style>.cls-1{fill:#c2c2c2;}.cls-2{fill:#898989;}</style></defs><title>logo-ar</title><path class="cls-1" d="M511.34,4.7C435.79-5,368.43-.18,309.31,15.13V399.68h34V53.21c32.7-6.31,68.8-9,108.17-6.88,139.09,7.39,15.08,90.38-108.17,156.48V264C529.36,161,713.54,30.68,511.34,4.7Z"/><polygon class="cls-2" points="537.27 399.68 351.31 288.13 351.31 266.99 374.81 253.81 599.94 399.68 537.27 399.68"/><polyline class="cls-1" points="343.37 264.36 263.31 307.56 263.31 244.49 343.37 203.13"/><path class="cls-2" d="M299.31,18.07C130.65,66.17,31.65,200.33,3.85,320.36c0,0-33,127.73,113.14,59,33-15.54,86.61-41.21,146.32-72.13V244.17c-25.88,12.71-48.34,23.29-63.89,30.51-92.77,43.07-79.64-24.45-78.61-29.19l.09-.56c7.62-59,56.44-126.81,142.41-166.17V399.68h36V18.07h0"/></svg>